<svg width="326" height="326" viewBox="0 0 326 326" fill="none" xmlns="http://www.w3.org/2000/svg">
<rect y="162.635" width="230" height="230" rx="45" transform="rotate(-45 0 162.635)" fill="#CFCFCF"/>
<rect x="47.6348" y="47.6345" width="230" height="230" rx="45" fill="#131417"/>
<path d="M152.808 218.135L139.465 214.228C138.065 213.831 137.278 212.352 137.671 210.939L167.634 108.347C168.028 106.934 169.234 105.237 170.634 105.635L184.13 109.254C185.53 109.651 186.318 111.13 185.924 112.542L156.067 216.325C155.651 217.737 154.208 218.554 152.808 218.135ZM128.134 193.635L137.634 183.635C138.64 182.553 138.75 181.128 137.634 180.135L118.134 162.635L137.798 144.745C138.913 143.751 138.162 142.216 137.134 141.135L128.634 132.135C127.65 131.075 125.706 130.619 124.634 131.635L93.6344 161.135C92.5189 162.172 91.5192 162.597 92.6348 163.635L124.465 193.37C125.536 194.385 127.15 194.716 128.134 193.635ZM198.134 194.135L229.634 164.635C230.75 163.597 230.75 161.884 229.634 160.847L198.134 130.847C197.084 129.854 196.14 130.575 195.134 131.635L186.134 141.635C185.128 142.716 184.518 144.141 185.634 145.135L205.134 162.635L185.634 180.135C184.519 181.128 184.606 182.265 185.634 183.347L195.134 193.347C196.119 194.428 197.062 195.128 198.134 194.135Z" fill="white"/>
</svg>
